HIERARCHY
ROOT Hips
{
OFFSET -0.1795 -22.3333 2.8219000000000003
	CHANNELS 6 Xposition Yposition Zposition Zrotation Yrotation Xrotation 
	JOINT LeftUpLeg
	{
OFFSET 6.952 -9.140600000000001 -0.6815
		CHANNELS 3 Zrotation Yrotation Xrotation
		JOINT LeftLeg
		{
OFFSET 3.4277 -37.5199 -0.4496
			CHANNELS 3 Zrotation Yrotation Xrotation
			JOINT LeftFoot
			{
OFFSET -1.3596000000000001 -39.7961 -4.3693
				CHANNELS 3 Zrotation Yrotation Xrotation
				JOINT LeftToe
				{
OFFSET 2.6358 -5.5791 11.9288
					CHANNELS 3 Zrotation Yrotation Xrotation
					End Site
					{
OFFSET 0.0 0.0 0.0
					}
				}
			}
		}
	}
	JOINT RightUpLeg
	{
OFFSET -6.7669999999999995 -9.052200000000001 -0.432
		CHANNELS 3 Zrotation Yrotation Xrotation
		JOINT RightLeg
		{
OFFSET -3.8289999999999997 -38.2569 -0.885
			CHANNELS 3 Zrotation Yrotation Xrotation
			JOINT RightFoot
			{
OFFSET 1.5774 -39.8415 -4.2312
				CHANNELS 3 Zrotation Yrotation Xrotation
				JOINT RightToe
				{
OFFSET -2.5372 -4.8144 12.3348
					CHANNELS 3 Zrotation Yrotation Xrotation
					End Site
					{
OFFSET 0.0 0.0 0.0
					}
				}
			}
		}
	}
	JOINT Spine
	{
OFFSET -0.2533 10.8963 -2.6696
		CHANNELS 3 Zrotation Yrotation Xrotation
		JOINT Spine1
		{
OFFSET 0.5487 13.517999999999999 0.1092
			CHANNELS 3 Zrotation Yrotation Xrotation
			JOINT Spine2
			{
OFFSET 0.1457 5.292199999999999 2.5425
				CHANNELS 3 Zrotation Yrotation Xrotation
				JOINT Neck
				{
OFFSET -0.2778 21.387 -4.2857
					CHANNELS 3 Zrotation Yrotation Xrotation
					JOINT Head
					{
OFFSET 0.5152 6.497 5.1349
						CHANNELS 3 Zrotation Yrotation Xrotation
						End Site
						{
OFFSET 0.0 0.0 0.0
						}
					}
				}
				JOINT LeftShoulder
				{
OFFSET 7.8845 12.1749 -3.4090000000000003
					CHANNELS 3 Zrotation Yrotation Xrotation
					JOINT LeftArm
					{
OFFSET 9.0977 3.0469 -0.8867999999999999
						CHANNELS 3 Zrotation Yrotation Xrotation
						JOINT LeftForeArm
						{
OFFSET 25.9612 -1.2772000000000001 -2.7456
							CHANNELS 3 Zrotation Yrotation Xrotation
							JOINT LeftHand
							{
OFFSET 24.9234 0.8986 -0.1171
								CHANNELS 3 Zrotation Yrotation Xrotation
								End Site
								{
OFFSET 0.0 0.0 0.0
								}
							}
						}
					}
				}
				JOINT RightShoulder
				{
OFFSET -8.1759 11.8833 -3.8614999999999995
					CHANNELS 3 Zrotation Yrotation Xrotation
					JOINT RightArm
					{
OFFSET -9.6012 3.2550999999999997 -0.9143
						CHANNELS 3 Zrotation Yrotation Xrotation
						JOINT RightForeArm
						{
OFFSET -25.374200000000002 -1.3329 -2.1401
							CHANNELS 3 Zrotation Yrotation Xrotation
							JOINT RightHand
							{
OFFSET -25.5298 0.7772 -0.5559
								CHANNELS 3 Zrotation Yrotation Xrotation
								End Site
								{
OFFSET 0.0 0.0 0.0
								}
							}
						}
					}
				}
			}
		}
	}
}
MOTION
Frames: 18
Frame Time: 0.050000
0.0 97.8529 0.0 2.094727 -0.493354 2.410079 4.032951 -0.074278 -0.142495 -2.611419 0.275687 1.104675 3.342740 10.344532 13.803831 0.000000 0.000000 0.000000 -2.797140 0.161428 -1.037812 0.624728 -0.043347 0.632011 -2.572370 -10.235954 13.443594 0.000000 0.000000 0.000000 0.881224 -0.277924 5.557258 5.184889 -0.719943 -22.888703 0.270030 0.986451 30.605150 0.832588 1.077942 -24.591937 0.000000 0.000000 0.000000 -18.479805 5.322897 -3.973002 -59.893686 0.793028 -10.330589 -12.575488 -37.969005 6.867389 0.000000 0.000000 0.000000 11.899598 -0.142650 -0.450863 65.612753 2.702287 -7.887090 -3.599165 35.991587 1.217038 0.000000 0.000000 0.000000
-0.0965 97.70060000000001 -0.2904 1.863615 -0.848009 2.983454 4.144398 -0.078739 -0.131225 -3.107806 0.341769 0.341820 4.281645 11.317874 11.198369 0.000000 0.000000 0.000000 -2.418319 0.225556 -1.897850 0.959215 -0.074048 0.786923 -3.175208 -10.920526 11.237060 0.000000 0.000000 0.000000 0.699895 -0.233303 4.799002 5.629950 -0.874012 -22.357364 -0.031132 1.809534 29.435486 1.097612 1.084095 -25.215080 0.000000 0.000000 0.000000 -17.382239 5.664897 -4.185880 -61.337280 1.156648 -10.621127 -10.928948 -37.035434 6.019353 0.000000 0.000000 0.000000 12.187553 -0.772461 -0.699960 65.750709 1.088331 -8.588738 -3.074749 37.133863 1.462341 0.000000 0.000000 0.000000
-0.1464 97.6182 -0.5189 1.856951 -0.576448 3.189675 3.835529 -0.062471 0.129297 -2.893449 0.323771 -0.659727 3.960115 10.918261 11.729664 0.000000 0.000000 0.000000 -2.526634 0.217112 -1.764819 0.739972 -0.088871 -0.373472 -3.402832 -11.451880 11.926876 0.000000 0.000000 0.000000 0.564347 -0.183431 3.851427 5.118375 -0.770778 -21.908775 -0.644919 0.617761 29.837803 1.003199 0.990963 -25.820290 0.000000 0.000000 0.000000 -18.369810 6.354451 -4.456706 -60.792687 0.612533 -10.284757 -9.942593 -36.239943 5.680578 0.000000 0.000000 0.000000 12.361794 -0.532431 -0.760183 65.538930 0.637905 -8.931633 -2.546289 36.901294 1.487533 0.000000 0.000000 0.000000
-0.1744 97.7225 -0.7499 1.805017 -1.051492 3.157132 3.589702 -0.009573 0.857693 -2.615927 0.314374 -2.200006 4.093424 11.214445 12.456879 0.000000 0.000000 0.000000 -2.253538 0.212456 -1.745567 0.565742 -0.067156 -0.265708 -3.302458 -11.387330 12.263920 0.000000 0.000000 0.000000 -0.166053 -0.124440 3.315724 5.432591 -0.880162 -21.644543 -1.002786 0.593578 29.969773 1.188281 0.804365 -25.429166 0.000000 0.000000 0.000000 -19.004518 6.881408 -4.761398 -60.723855 0.492694 -10.216127 -7.994677 -36.011408 5.046404 0.000000 0.000000 0.000000 12.284628 0.301625 -0.409745 65.840514 0.723087 -8.954795 -3.342212 36.868620 1.201487 0.000000 0.000000 0.000000
-0.1515 97.7324 -0.9875999999999999 1.485050 -0.447425 3.233120 3.581504 0.002500 1.146048 -2.398793 0.302254 -3.052879 3.908143 11.036086 12.776997 0.000000 0.000000 0.000000 -1.892445 0.193172 -1.603336 0.441888 -0.077963 -0.900571 -3.533552 -11.814507 12.654056 0.000000 0.000000 0.000000 -0.151773 -0.118860 3.133970 5.367390 -0.889809 -21.156751 -1.612873 0.636133 29.395682 1.590432 0.700654 -26.203441 0.000000 0.000000 0.000000 -18.876699 6.437890 -4.618836 -60.219101 -0.189868 -9.737911 -7.359162 -34.885279 4.571057 0.000000 0.000000 0.000000 12.423345 -0.429691 -0.714573 66.278676 0.841991 -8.806365 -2.823790 36.252729 1.362812 0.000000 0.000000 0.000000
-0.0991 97.7423 -1.2537 1.238117 -0.297367 3.355414 3.356426 0.016158 1.297906 -1.754853 0.262592 -3.811613 3.888427 11.097151 13.198637 0.000000 0.000000 0.000000 -1.601264 0.221235 -1.988364 0.180450 -0.039775 -0.553468 -3.588946 -11.916390 12.760760 0.000000 0.000000 0.000000 -0.589248 -0.086208 2.775804 5.310706 -0.860174 -21.307002 -1.897737 0.424670 29.650487 1.888789 0.527438 -26.552280 0.000000 0.000000 0.000000 -19.128854 5.799181 -4.263253 -59.692716 -1.068211 -9.266171 -5.772454 -33.489116 3.878220 0.000000 0.000000 0.000000 12.458842 0.015493 -0.512523 66.545712 1.240400 -8.650252 -3.266070 35.820518 1.206799 0.000000 0.000000 0.000000
-0.009399999999999999 97.6768 -1.5664999999999998 0.927818 0.054732 3.224851 3.539036 0.008026 1.290748 -1.731558 0.266116 -4.170959 3.974528 11.333752 13.577464 0.000000 0.000000 0.000000 -1.311565 0.212404 -1.942643 0.163446 -0.045440 -0.743850 -3.586980 -11.922529 13.054477 0.000000 0.000000 0.000000 -1.005976 -0.070596 2.826841 5.230774 -0.826846 -21.397609 -2.110622 0.268387 29.539734 1.961582 0.534711 -27.062458 0.000000 0.000000 0.000000 -19.387810 5.158222 -3.957100 -59.451925 -1.871729 -8.838907 -4.781714 -32.362562 3.419349 0.000000 0.000000 0.000000 12.571110 0.066081 -0.486151 66.628314 1.185631 -8.662808 -2.403470 35.956611 1.471824 0.000000 0.000000 0.000000
0.07050000000000001 97.6413 -1.8991 0.496462 -0.033773 3.039858 3.670240 0.008315 1.329966 -1.517592 0.257369 -4.471759 4.126215 11.602401 13.822619 0.000000 0.000000 0.000000 -0.956647 0.230742 -2.198100 0.129310 -0.027830 -0.371723 -3.487338 -11.743565 12.990474 0.000000 0.000000 0.000000 -1.288991 -0.056730 2.731835 4.989491 -0.757986 -21.523034 -2.215207 0.281381 29.947581 2.176372 0.392589 -26.999440 0.000000 0.000000 0.000000 -19.786656 4.500173 -3.608302 -58.808562 -2.714314 -8.409237 -3.852295 -31.450873 3.046273 0.000000 0.000000 0.000000 12.601939 0.793793 -0.133000 66.721754 1.539853 -8.528909 -1.982159 36.358923 1.628773 0.000000 0.000000 0.000000
0.13699999999999998 97.6173 -2.2203 0.205599 0.002295 2.791853 3.989416 -0.003694 1.259957 -1.608585 0.261581 -4.376161 4.199120 11.724435 13.857693 0.000000 0.000000 0.000000 -0.750027 0.231137 -2.230033 0.311498 -0.051622 -0.514127 -3.465647 -11.793226 13.520019 0.000000 0.000000 0.000000 -1.731515 -0.041272 2.787303 4.813153 -0.717697 -21.455986 -2.132993 0.306679 30.186086 2.210229 0.392692 -27.206920 0.000000 0.000000 0.000000 -19.993404 3.767148 -3.216615 -58.453880 -3.610144 -7.976665 -3.504516 -30.604857 2.845896 0.000000 0.000000 0.000000 12.460970 1.417498 0.186495 67.052255 2.188859 -8.210780 -1.429879 36.329014 1.805610 0.000000 0.000000 0.000000
0.1764 97.59100000000001 -2.4899 -0.208317 -0.293196 2.725768 4.476218 -0.013891 1.274792 -1.903578 0.283866 -4.402369 4.477292 12.148228 14.041373 0.000000 0.000000 0.000000 -0.449638 0.259206 -2.553710 0.420462 -0.047151 -0.090108 -3.392317 -11.723160 13.646782 0.000000 0.000000 0.000000 -1.927521 -0.027839 2.540075 4.559925 -0.669363 -21.281613 -2.099246 0.394622 30.408561 2.341518 0.286318 -27.065572 0.000000 0.000000 0.000000 -20.363072 3.353160 -2.982921 -57.999255 -4.039634 -7.761794 -3.383135 -30.461354 2.802868 0.000000 0.000000 0.000000 12.437918 2.147360 0.524913 67.277847 2.835864 -7.893401 -0.946327 36.460067 1.955604 0.000000 0.000000 0.000000
0.21320000000000003 97.5712 -2.6738999999999997 -0.432909 -0.386086 2.481666 4.758286 -0.017530 1.290640 -2.009282 0.288029 -4.161868 4.527689 12.160522 13.670944 0.000000 0.000000 0.000000 -0.404030 0.247770 -2.440813 0.620773 -0.065532 -0.022582 -3.532549 -12.011892 13.805226 0.000000 0.000000 0.000000 -2.126867 -0.019214 2.424817 4.405831 -0.628558 -21.339565 -1.942578 0.429060 30.545418 2.202358 0.333466 -26.698224 0.000000 0.000000 0.000000 -20.736753 2.971872 -2.788900 -57.581544 -4.097703 -7.715649 -3.787022 -30.735967 2.940502 0.000000 0.000000 0.000000 12.178357 2.942875 0.910173 67.588966 3.373116 -7.623541 -0.963039 36.391822 1.944007 0.000000 0.000000 0.000000
0.2645 97.5778 -2.7645 -0.608192 -0.389177 2.335746 5.037051 -0.022567 1.316740 -2.225363 0.303648 -4.147523 4.533112 12.175697 13.709796 0.000000 0.000000 0.000000 -0.334482 0.255824 -2.529225 0.597235 -0.054402 0.230997 -3.396404 -11.791105 13.917590 0.000000 0.000000 0.000000 -2.401174 -0.008653 2.349892 4.304204 -0.599600 -21.389012 -1.846879 0.335345 30.511925 2.203793 0.288233 -26.367306 0.000000 0.000000 0.000000 -21.302915 3.166274 -2.939449 -57.153528 -4.108257 -7.670499 -4.401533 -31.315914 3.181991 0.000000 0.000000 0.000000 12.174059 3.563442 1.188395 67.601937 3.664194 -7.464386 -0.689729 36.229711 1.995883 0.000000 0.000000 0.000000
0.3316 97.583 -2.77 -0.662512 -0.378013 2.166660 4.806692 -0.014103 1.322506 -2.136668 0.295063 -4.007508 4.637707 12.272368 13.281924 0.000000 0.000000 0.000000 -0.448153 0.244357 -2.403157 0.523217 -0.044306 0.295584 -3.433274 -11.844438 13.858235 0.000000 0.000000 0.000000 -2.611379 0.000870 2.169691 4.183878 -0.563476 -21.468166 -1.707303 0.379715 30.571828 2.194399 0.285094 -26.148401 0.000000 0.000000 0.000000 -21.597475 3.180146 -2.991337 -56.984212 -4.001591 -7.711011 -4.956575 -32.370507 3.469861 0.000000 0.000000 0.000000 12.050137 3.758432 1.290846 67.440559 3.678633 -7.445189 -0.102542 36.148271 2.163878 0.000000 0.000000 0.000000
0.41000000000000003 97.57339999999999 -2.7151 -0.824001 -0.301214 2.010917 4.746278 0.001877 1.598923 -2.148190 0.296154 -4.053873 4.568092 12.120135 12.953197 0.000000 0.000000 0.000000 -0.474321 0.213716 -2.082700 0.540140 -0.050530 0.173059 -3.150060 -11.354530 14.000685 0.000000 0.000000 0.000000 -2.682425 0.007355 1.856220 4.043553 -0.532597 -21.357191 -1.672552 0.293539 30.503429 2.019291 0.352245 -25.733510 0.000000 0.000000 0.000000 -21.777641 3.486322 -3.184063 -56.987243 -4.031978 -7.692104 -5.483484 -33.221399 3.746121 0.000000 0.000000 0.000000 11.999621 3.897078 1.349126 67.412562 3.392731 -7.603978 0.358162 36.455600 2.322013 0.000000 0.000000 0.000000
0.4906 97.59400000000001 -2.6085000000000003 -0.876515 -0.094048 2.046466 4.533748 -0.001684 1.458901 -1.886018 0.273346 -3.901550 4.439472 11.914295 12.789712 0.000000 0.000000 0.000000 -0.573362 0.219010 -2.125712 0.425317 -0.034979 0.271950 -3.132650 -11.297966 14.006686 0.000000 0.000000 0.000000 -2.629558 0.010561 1.590119 4.007412 -0.510743 -21.497674 -1.637732 0.235621 30.561450 2.067647 0.333951 -25.711810 0.000000 0.000000 0.000000 -22.007279 3.670759 -3.342485 -57.099855 -3.876668 -7.775314 -5.982209 -34.466836 4.072015 0.000000 0.000000 0.000000 11.826362 3.725176 1.284753 67.320175 3.029084 -7.802024 0.621871 36.813326 2.443762 0.000000 0.000000 0.000000
0.5725 97.6177 -2.4669 -0.907618 0.258173 1.992380 4.374661 0.000873 1.480881 -1.893671 0.269790 -3.748460 4.353163 11.772702 12.551448 0.000000 0.000000 0.000000 -0.575294 0.200797 -1.934242 0.298313 -0.017032 0.394932 -3.183350 -11.319924 13.896688 0.000000 0.000000 0.000000 -2.638764 0.010634 1.549293 3.890216 -0.464929 -21.633345 -1.631611 -0.099465 30.376882 1.820453 0.481909 -25.967690 0.000000 0.000000 0.000000 -22.079191 3.860341 -3.442764 -57.293703 -3.764715 -7.824622 -6.511895 -35.552888 4.406337 0.000000 0.000000 0.000000 11.702836 3.573761 1.192706 67.275166 2.530876 -8.064993 1.092148 36.945052 2.580365 0.000000 0.000000 0.000000
0.6466999999999999 97.6366 -2.2769999999999997 -0.930026 0.317767 1.930941 4.077037 0.005661 1.403689 -1.595797 0.242053 -3.493240 4.231377 11.545298 12.312556 0.000000 0.000000 0.000000 -0.461694 0.197684 -1.914715 0.078198 0.023604 0.821785 -3.262676 -11.374136 13.452431 0.000000 0.000000 0.000000 -2.697634 0.012814 1.482691 3.942157 -0.481443 -21.577097 -1.672043 -0.119138 30.154628 1.734017 0.532729 -25.857364 0.000000 0.000000 0.000000 -22.316364 3.894666 -3.510632 -57.139601 -3.825439 -7.747821 -6.559633 -36.348543 4.527150 0.000000 0.000000 0.000000 11.725482 3.534023 1.172355 67.278662 2.202577 -8.226596 1.192232 36.968820 2.608321 0.000000 0.000000 0.000000
0.7123 97.6446 -2.041 -0.882659 0.565360 1.828638 3.754601 0.022605 1.552822 -1.503386 0.229865 -3.281768 4.027107 11.151080 11.797169 0.000000 0.000000 0.000000 -0.461301 0.171556 -1.644863 -0.068915 0.044096 0.918662 -3.364945 -11.494234 13.265317 0.000000 0.000000 0.000000 -2.831609 0.016489 1.404620 4.019272 -0.491451 -21.698680 -1.775344 -0.389431 30.215007 1.517993 0.668966 -26.293566 0.000000 0.000000 0.000000 -22.282759 4.225146 -3.666631 -57.144515 -3.788280 -7.776676 -7.121167 -37.164444 4.860604 0.000000 0.000000 0.000000 11.706945 3.409858 1.100051 67.283489 1.809131 -8.473123 1.368211 37.160619 2.678114 0.000000 0.000000 0.000000
